<svg width="1208" height="284" viewBox="0 0 1208 284" fill="none" xmlns="http://www.w3.org/2000/svg">
  <path d="M116.95 0H174.065L201.806 219.556L230.092 0H287.751L236.075 338.9H170.257L144.691 141.664L118.582 338.9H50.5876L0 0H62.0106L89.7522 219.101L116.95 0Z" fill="white" />
  <path d="M116.95 0H174.065L201.806 219.556L230.092 0H287.751L236.075 338.9H170.257L144.691 141.664L118.582 338.9H50.5876L0 0H62.0106L89.7522 219.101L116.95 0Z" fill="url(#paint0_linear_112_296)" />
  <path d="M311.821 0H451.617V49.1952H373.288V138.02H434.754V189.493H373.288V287.428H454.88V338.9H311.821V0Z" fill="white" />
  <path d="M311.821 0H451.617V49.1952H373.288V138.02H434.754V189.493H373.288V287.428H454.88V338.9H311.821V0Z" fill="url(#paint1_linear_112_296)" />
  <path d="M483.655 338.9V0H580.478C604.412 0 621.093 4.70694 630.522 14.1208C640.313 23.5347 645.209 37.2001 645.209 55.1169V107.045C645.209 131.946 635.055 147.586 614.747 153.963C638.319 161.555 650.104 178.105 650.104 203.614V276.951C650.104 296.082 644.665 311.266 633.786 322.502C623.269 333.434 606.951 338.9 584.83 338.9H483.655ZM563.616 184.482H545.121V291.072H563.616C573.044 291.072 579.39 289.25 582.654 285.606C585.918 281.961 587.55 276.192 587.55 268.296V206.347C587.55 198.755 585.918 193.289 582.654 189.948C579.39 186.304 573.044 184.482 563.616 184.482ZM563.616 46.0066H545.121V133.92H563.616C577.759 133.92 584.83 126.025 584.83 110.234V67.4157C584.83 59.8238 583.198 54.3577 579.934 51.0173C577.033 47.6768 571.594 46.0066 563.616 46.0066Z" fill="white" />
  <path d="M483.655 338.9V0H580.478C604.412 0 621.093 4.70694 630.522 14.1208C640.313 23.5347 645.209 37.2001 645.209 55.1169V107.045C645.209 131.946 635.055 147.586 614.747 153.963C638.319 161.555 650.104 178.105 650.104 203.614V276.951C650.104 296.082 644.665 311.266 633.786 322.502C623.269 333.434 606.951 338.9 584.83 338.9H483.655ZM563.616 184.482H545.121V291.072H563.616C573.044 291.072 579.39 289.25 582.654 285.606C585.918 281.961 587.55 276.192 587.55 268.296V206.347C587.55 198.755 585.918 193.289 582.654 189.948C579.39 186.304 573.044 184.482 563.616 184.482ZM563.616 46.0066H545.121V133.92H563.616C577.759 133.92 584.83 126.025 584.83 110.234V67.4157C584.83 59.8238 583.198 54.3577 579.934 51.0173C577.033 47.6768 571.594 46.0066 563.616 46.0066Z" fill="url(#paint2_linear_112_296)" />
  <path d="M680.961 265.108V0H743.515V268.296C743.515 284.391 750.043 292.438 763.098 292.438C776.515 292.438 783.224 284.391 783.224 268.296V0H845.779V265.108C845.779 317.036 820.031 343 768.537 343H757.658C706.527 343 680.961 317.036 680.961 265.108Z" fill="white" />
  <path d="M680.961 265.108V0H743.515V268.296C743.515 284.391 750.043 292.438 763.098 292.438C776.515 292.438 783.224 284.391 783.224 268.296V0H845.779V265.108C845.779 317.036 820.031 343 768.537 343H757.658C706.527 343 680.961 317.036 680.961 265.108Z" fill="url(#paint3_linear_112_296)" />
  <path d="M880.443 0H941.909V286.517H1016.97V338.9H880.443V0Z" fill="white" />
  <path d="M880.443 0H941.909V286.517H1016.97V338.9H880.443V0Z" fill="url(#paint4_linear_112_296)" />
  <path d="M1148.71 338.9L1140.55 275.129H1095.4L1087.79 338.9H1032.85L1082.35 0H1155.24L1208 338.9H1148.71ZM1117.7 99.3015L1101.93 224.567H1134.02L1117.7 99.3015Z" fill="white" />
  <path d="M1148.71 338.9L1140.55 275.129H1095.4L1087.79 338.9H1032.85L1082.35 0H1155.24L1208 338.9H1148.71ZM1117.7 99.3015L1101.93 224.567H1134.02L1117.7 99.3015Z" fill="url(#paint5_linear_112_296)" />
  <defs>
    <linearGradient id="paint0_linear_112_296" x1="604" y1="0" x2="604" y2="343" gradientUnits="userSpaceOnUse">
      <stop stop-color="#474747" />
      <stop offset="1" stop-color="#141414" />
    </linearGradient>
    <linearGradient id="paint1_linear_112_296" x1="604" y1="0" x2="604" y2="343" gradientUnits="userSpaceOnUse">
      <stop stop-color="#474747" />
      <stop offset="1" stop-color="#141414" />
    </linearGradient>
    <linearGradient id="paint2_linear_112_296" x1="604" y1="0" x2="604" y2="343" gradientUnits="userSpaceOnUse">
      <stop stop-color="#474747" />
      <stop offset="1" stop-color="#141414" />
    </linearGradient>
    <linearGradient id="paint3_linear_112_296" x1="604" y1="0" x2="604" y2="343" gradientUnits="userSpaceOnUse">
      <stop stop-color="#474747" />
      <stop offset="1" stop-color="#141414" />
    </linearGradient>
    <linearGradient id="paint4_linear_112_296" x1="604" y1="0" x2="604" y2="343" gradientUnits="userSpaceOnUse">
      <stop stop-color="#474747" />
      <stop offset="1" stop-color="#141414" />
    </linearGradient>
    <linearGradient id="paint5_linear_112_296" x1="604" y1="0" x2="604" y2="343" gradientUnits="userSpaceOnUse">
      <stop stop-color="#474747" />
      <stop offset="1" stop-color="#141414" />
    </linearGradient>
  </defs>
</svg>