<svg width="1280" height="461" viewBox="0 0 1280 461" fill="none" xmlns="http://www.w3.org/2000/svg">
<path d="M147.95 28H205.065L232.806 247.556L261.092 28H318.751L267.075 366.9H201.257L175.691 169.664L149.582 366.9H81.5876L31 28H93.0106L120.752 247.101L147.95 28Z" fill="white"/>
<path d="M147.95 28H205.065L232.806 247.556L261.092 28H318.751L267.075 366.9H201.257L175.691 169.664L149.582 366.9H81.5876L31 28H93.0106L120.752 247.101L147.95 28Z" fill="url(#paint0_linear_2008_34)"/>
<path d="M342.821 28H482.617V77.1952H404.288V166.02H465.754V217.493H404.288V315.428H485.88V366.9H342.821V28Z" fill="white"/>
<path d="M342.821 28H482.617V77.1952H404.288V166.02H465.754V217.493H404.288V315.428H485.88V366.9H342.821V28Z" fill="url(#paint1_linear_2008_34)"/>
<path d="M514.655 366.9V28H611.478C635.412 28 652.093 32.7069 661.522 42.1208C671.313 51.5347 676.209 65.2001 676.209 83.1169V135.045C676.209 159.946 666.055 175.586 645.747 181.963C669.319 189.555 681.104 206.105 681.104 231.614V304.951C681.104 324.082 675.665 339.266 664.786 350.502C654.269 361.434 637.951 366.9 615.83 366.9H514.655ZM594.616 212.482H576.121V319.072H594.616C604.044 319.072 610.39 317.25 613.654 313.606C616.918 309.961 618.55 304.192 618.55 296.296V234.347C618.55 226.755 616.918 221.289 613.654 217.948C610.39 214.304 604.044 212.482 594.616 212.482ZM594.616 74.0066H576.121V161.92H594.616C608.759 161.92 615.83 154.025 615.83 138.234V95.4157C615.83 87.8238 614.198 82.3577 610.934 79.0173C608.033 75.6768 602.594 74.0066 594.616 74.0066Z" fill="white"/>
<path d="M514.655 366.9V28H611.478C635.412 28 652.093 32.7069 661.522 42.1208C671.313 51.5347 676.209 65.2001 676.209 83.1169V135.045C676.209 159.946 666.055 175.586 645.747 181.963C669.319 189.555 681.104 206.105 681.104 231.614V304.951C681.104 324.082 675.665 339.266 664.786 350.502C654.269 361.434 637.951 366.9 615.83 366.9H514.655ZM594.616 212.482H576.121V319.072H594.616C604.044 319.072 610.39 317.25 613.654 313.606C616.918 309.961 618.55 304.192 618.55 296.296V234.347C618.55 226.755 616.918 221.289 613.654 217.948C610.39 214.304 604.044 212.482 594.616 212.482ZM594.616 74.0066H576.121V161.92H594.616C608.759 161.92 615.83 154.025 615.83 138.234V95.4157C615.83 87.8238 614.198 82.3577 610.934 79.0173C608.033 75.6768 602.594 74.0066 594.616 74.0066Z" fill="url(#paint2_linear_2008_34)"/>
<path d="M711.961 293.108V28H774.515V296.296C774.515 312.391 781.043 320.438 794.098 320.438C807.515 320.438 814.224 312.391 814.224 296.296V28H876.779V293.108C876.779 345.036 851.031 371 799.537 371H788.658C737.527 371 711.961 345.036 711.961 293.108Z" fill="white"/>
<path d="M711.961 293.108V28H774.515V296.296C774.515 312.391 781.043 320.438 794.098 320.438C807.515 320.438 814.224 312.391 814.224 296.296V28H876.779V293.108C876.779 345.036 851.031 371 799.537 371H788.658C737.527 371 711.961 345.036 711.961 293.108Z" fill="url(#paint3_linear_2008_34)"/>
<path d="M911.443 28H972.909V314.517H1047.97V366.9H911.443V28Z" fill="white"/>
<path d="M911.443 28H972.909V314.517H1047.97V366.9H911.443V28Z" fill="url(#paint4_linear_2008_34)"/>
<path d="M1179.71 366.9L1171.55 303.129H1126.4L1118.79 366.9H1063.85L1113.35 28H1186.24L1239 366.9H1179.71ZM1148.7 127.301L1132.93 252.567H1165.02L1148.7 127.301Z" fill="white"/>
<path d="M1179.71 366.9L1171.55 303.129H1126.4L1118.79 366.9H1063.85L1113.35 28H1186.24L1239 366.9H1179.71ZM1148.7 127.301L1132.93 252.567H1165.02L1148.7 127.301Z" fill="url(#paint5_linear_2008_34)"/>
<rect width="1280" height="461" fill="url(#paint6_linear_2008_34)"/>
<defs>
<linearGradient id="paint0_linear_2008_34" x1="635" y1="28" x2="635" y2="371" gradientUnits="userSpaceOnUse">
<stop stop-color="#C7C7C7"/>
<stop offset="1" stop-color="#141414"/>
</linearGradient>
<linearGradient id="paint1_linear_2008_34" x1="635" y1="28" x2="635" y2="371" gradientUnits="userSpaceOnUse">
<stop stop-color="#C7C7C7"/>
<stop offset="1" stop-color="#141414"/>
</linearGradient>
<linearGradient id="paint2_linear_2008_34" x1="635" y1="28" x2="635" y2="371" gradientUnits="userSpaceOnUse">
<stop stop-color="#C7C7C7"/>
<stop offset="1" stop-color="#141414"/>
</linearGradient>
<linearGradient id="paint3_linear_2008_34" x1="635" y1="28" x2="635" y2="371" gradientUnits="userSpaceOnUse">
<stop stop-color="#C7C7C7"/>
<stop offset="1" stop-color="#141414"/>
</linearGradient>
<linearGradient id="paint4_linear_2008_34" x1="635" y1="28" x2="635" y2="371" gradientUnits="userSpaceOnUse">
<stop stop-color="#C7C7C7"/>
<stop offset="1" stop-color="#141414"/>
</linearGradient>
<linearGradient id="paint5_linear_2008_34" x1="635" y1="28" x2="635" y2="371" gradientUnits="userSpaceOnUse">
<stop stop-color="#C7C7C7"/>
<stop offset="1" stop-color="#141414"/>
</linearGradient>
<linearGradient id="paint6_linear_2008_34" x1="640" y1="461" x2="640" y2="0" gradientUnits="userSpaceOnUse">
<stop offset="0.0384615" stop-color="#141414"/>
<stop offset="1" stop-color="#141414" stop-opacity="0"/>
</linearGradient>
</defs>
</svg>
