<svg width="124" height="48" viewBox="0 0 124 48" fill="none" xmlns="http://www.w3.org/2000/svg">
<path d="M14.4239 0H20.003L22.7129 21.1235L25.4759 0H31.1081L26.0604 32.6056H19.6311L17.1338 13.6295L14.5833 32.6056H7.9415L3 0H9.05733L11.7672 21.0797L14.4239 0Z" fill="white"/>
<path d="M33.4593 0H47.1149V4.73307H39.4635V13.2789H45.4677V18.2311H39.4635V27.6534H47.4337V32.6056H33.4593V0Z" fill="white"/>
<path d="M50.2444 32.6056V0H59.7024C62.0403 0 63.6697 0.452855 64.5907 1.35856C65.5471 2.26427 66.0253 3.57902 66.0253 5.30279V10.2988C66.0253 12.6946 65.0335 14.1992 63.0498 14.8127C65.3523 15.5432 66.5036 17.1355 66.5036 19.5896V26.6454C66.5036 28.4861 65.9722 29.9469 64.9095 31.0279C63.8823 32.0797 62.2882 32.6056 60.1274 32.6056H50.2444ZM58.0552 17.749H56.2486V28.004H58.0552C58.9762 28.004 59.5961 27.8287 59.9149 27.4781C60.2337 27.1275 60.3931 26.5724 60.3931 25.8127V19.8526C60.3931 19.1222 60.2337 18.5963 59.9149 18.2749C59.5961 17.9243 58.9762 17.749 58.0552 17.749ZM58.0552 4.4263H56.2486V12.8845H58.0552C59.4367 12.8845 60.1274 12.1248 60.1274 10.6056V6.48606C60.1274 5.75564 59.968 5.22975 59.6492 4.90837C59.3658 4.58699 58.8345 4.4263 58.0552 4.4263Z" fill="white"/>
<path d="M69.5177 25.506V0H75.6282V25.8127C75.6282 27.3612 76.2658 28.1355 77.541 28.1355C78.8516 28.1355 79.507 27.3612 79.507 25.8127V0H85.6174V25.506C85.6174 30.502 83.1024 33 78.0723 33H77.0097C72.015 33 69.5177 30.502 69.5177 25.506Z" fill="white"/>
<path d="M89.0035 0H95.0077V27.5657H102.34V32.6056H89.0035V0Z" fill="white"/>
<path d="M115.208 32.6056L114.411 26.4701H110.001L109.257 32.6056H103.891L108.726 0H115.846L121 32.6056H115.208ZM112.18 9.55378L110.639 21.6056H113.774L112.18 9.55378Z" fill="white"/>
<path d="M0.608 40.088H2C2.27733 40.088 2.528 40.0987 2.752 40.12C2.976 40.136 3.17867 40.1653 3.36 40.208C3.54667 40.2453 3.71733 40.296 3.872 40.36C4.02667 40.424 4.176 40.5013 4.32 40.592C4.74133 40.864 5.05867 41.208 5.272 41.624C5.49067 42.0347 5.6 42.5147 5.6 43.064C5.6 43.6293 5.48 44.128 5.24 44.56C5 44.992 4.64533 45.336 4.176 45.592C3.92 45.7307 3.63467 45.8347 3.32 45.904C3.00533 45.968 2.632 46 2.2 46H0.608V40.088ZM2.024 45.464C2.56267 45.464 3 45.4213 3.336 45.336C3.672 45.2453 3.96 45.0987 4.2 44.896C4.456 44.672 4.65333 44.4027 4.792 44.088C4.93067 43.768 5 43.4187 5 43.04C5 42.5867 4.90133 42.1813 4.704 41.824C4.50667 41.4613 4.22933 41.1787 3.872 40.976C3.648 40.8533 3.392 40.7653 3.104 40.712C2.816 40.6533 2.456 40.624 2.024 40.624H1.2V45.464H2.024ZM6.37713 41.624H6.96913V46H6.37713V41.624ZM6.37713 40.088H6.96913V41.096H6.37713V40.088ZM8.46669 46.136C8.57335 46.3227 8.68269 46.4827 8.79469 46.616C8.90669 46.7493 9.02669 46.856 9.15469 46.936C9.28269 47.0213 9.42135 47.0827 9.57069 47.12C9.72002 47.1573 9.88802 47.176 10.0747 47.176C10.608 47.176 11.008 47.0267 11.2747 46.728C11.5467 46.4293 11.6827 45.9893 11.6827 45.408V45.112C11.3467 45.7733 10.7894 46.104 10.0107 46.104C9.69069 46.104 9.38935 46.0453 9.10669 45.928C8.82935 45.8107 8.58935 45.6507 8.38669 45.448C8.18402 45.2453 8.02402 45.0053 7.90669 44.728C7.78935 44.4507 7.73069 44.152 7.73069 43.832C7.73069 43.5013 7.78669 43.1947 7.89869 42.912C8.01069 42.6293 8.16535 42.3867 8.36269 42.184C8.56535 41.976 8.80269 41.8133 9.07469 41.696C9.34669 41.5787 9.64269 41.52 9.96269 41.52C10.336 41.52 10.6587 41.592 10.9307 41.736C11.208 41.8747 11.4587 42.096 11.6827 42.4V41.624H12.2747V45.216C12.2747 46.8853 11.5467 47.72 10.0907 47.72C9.53602 47.72 9.06935 47.584 8.69069 47.312C8.31735 47.0453 8.05069 46.6533 7.89069 46.136H8.46669ZM10.0107 45.56C10.2507 45.56 10.472 45.5147 10.6747 45.424C10.8774 45.3333 11.0534 45.208 11.2027 45.048C11.352 44.888 11.4694 44.6987 11.5547 44.48C11.64 44.2613 11.6827 44.024 11.6827 43.768C11.6827 43.5227 11.6374 43.296 11.5467 43.088C11.4614 42.88 11.3414 42.7013 11.1867 42.552C11.0374 42.3973 10.856 42.2773 10.6427 42.192C10.4347 42.1067 10.2054 42.064 9.95469 42.064C9.72535 42.064 9.51202 42.1093 9.31469 42.2C9.11735 42.2853 8.94402 42.4053 8.79469 42.56C8.65069 42.7147 8.53602 42.896 8.45069 43.104C8.37069 43.312 8.33069 43.5387 8.33069 43.784C8.33069 44.04 8.37335 44.2773 8.45869 44.496C8.54402 44.7093 8.66135 44.896 8.81069 45.056C8.96002 45.2107 9.13602 45.3333 9.33869 45.424C9.54669 45.5147 9.77069 45.56 10.0107 45.56ZM13.2015 41.624H13.7935V46H13.2015V41.624ZM13.2015 40.088H13.7935V41.096H13.2015V40.088ZM15.2591 42.16H14.3151V41.624H15.2591V40.088H15.8511V41.624H16.8351V42.16H15.8511V46H15.2591V42.16ZM17.186 43.824C17.186 43.4933 17.2447 43.1893 17.362 42.912C17.4793 42.6293 17.6393 42.3867 17.842 42.184C18.05 41.976 18.2953 41.8133 18.578 41.696C18.8607 41.5787 19.1647 41.52 19.49 41.52C19.874 41.52 20.202 41.5893 20.474 41.728C20.746 41.8667 20.994 42.0907 21.218 42.4V41.624H21.81V46H21.218V45.232C21.1007 45.3867 20.9807 45.52 20.858 45.632C20.7407 45.744 20.6153 45.8347 20.482 45.904C20.3487 45.9733 20.2047 46.024 20.05 46.056C19.8953 46.088 19.7247 46.104 19.538 46.104C19.202 46.104 18.89 46.048 18.602 45.936C18.314 45.8187 18.0633 45.6587 17.85 45.456C17.642 45.2533 17.4793 45.0133 17.362 44.736C17.2447 44.4533 17.186 44.1493 17.186 43.824ZM17.786 43.8C17.786 44.0453 17.8313 44.2747 17.922 44.488C18.0127 44.7013 18.1353 44.888 18.29 45.048C18.45 45.208 18.6367 45.3333 18.85 45.424C19.0633 45.5147 19.29 45.56 19.53 45.56C19.77 45.56 19.9913 45.5147 20.194 45.424C20.402 45.3333 20.5807 45.2107 20.73 45.056C20.8847 44.896 21.0047 44.7093 21.09 44.496C21.1753 44.2773 21.218 44.0453 21.218 43.8C21.218 43.5493 21.1727 43.32 21.082 43.112C20.9967 42.8987 20.8767 42.7147 20.722 42.56C20.5673 42.4053 20.3833 42.2853 20.17 42.2C19.962 42.1093 19.7327 42.064 19.482 42.064C19.2473 42.064 19.026 42.1093 18.818 42.2C18.6153 42.2907 18.4367 42.416 18.282 42.576C18.1273 42.7307 18.0047 42.9147 17.914 43.128C17.8287 43.336 17.786 43.56 17.786 43.8ZM22.7349 40.088H23.3269V46H22.7349V40.088ZM24.0005 43.632H26.1685V44.136H24.0005V43.632ZM26.6648 43.824C26.6648 43.4933 26.7234 43.1893 26.8408 42.912C26.9581 42.6293 27.1181 42.3867 27.3208 42.184C27.5288 41.976 27.7741 41.8133 28.0568 41.696C28.3394 41.5787 28.6434 41.52 28.9688 41.52C29.3528 41.52 29.6808 41.5893 29.9528 41.728C30.2248 41.8667 30.4728 42.0907 30.6968 42.4V41.624H31.2888V46H30.6968V45.232C30.5794 45.3867 30.4594 45.52 30.3368 45.632C30.2194 45.744 30.0941 45.8347 29.9608 45.904C29.8274 45.9733 29.6834 46.024 29.5288 46.056C29.3741 46.088 29.2034 46.104 29.0168 46.104C28.6808 46.104 28.3688 46.048 28.0808 45.936C27.7928 45.8187 27.5421 45.6587 27.3288 45.456C27.1208 45.2533 26.9581 45.0133 26.8408 44.736C26.7234 44.4533 26.6648 44.1493 26.6648 43.824ZM27.2648 43.8C27.2648 44.0453 27.3101 44.2747 27.4008 44.488C27.4914 44.7013 27.6141 44.888 27.7688 45.048C27.9288 45.208 28.1154 45.3333 28.3288 45.424C28.5421 45.5147 28.7688 45.56 29.0088 45.56C29.2488 45.56 29.4701 45.5147 29.6728 45.424C29.8808 45.3333 30.0594 45.2107 30.2088 45.056C30.3634 44.896 30.4834 44.7093 30.5688 44.496C30.6541 44.2773 30.6968 44.0453 30.6968 43.8C30.6968 43.5493 30.6514 43.32 30.5608 43.112C30.4754 42.8987 30.3554 42.7147 30.2008 42.56C30.0461 42.4053 29.8621 42.2853 29.6488 42.2C29.4408 42.1093 29.2114 42.064 28.9608 42.064C28.7261 42.064 28.5048 42.1093 28.2968 42.2C28.0941 42.2907 27.9154 42.416 27.7608 42.576C27.6061 42.7307 27.4834 42.9147 27.3928 43.128C27.3074 43.336 27.2648 43.56 27.2648 43.8ZM32.2137 41.624H34.4537V42.16H32.8057V46H32.2137V41.624ZM39.2494 44.56C39.1694 44.7893 39.0574 45 38.9134 45.192C38.7748 45.3787 38.6121 45.5413 38.4254 45.68C38.2388 45.8133 38.0334 45.9173 37.8094 45.992C37.5908 46.0667 37.3614 46.104 37.1214 46.104C36.7961 46.104 36.4921 46.0453 36.2094 45.928C35.9321 45.8053 35.6894 45.64 35.4814 45.432C35.2734 45.224 35.1081 44.9813 34.9854 44.704C34.8681 44.4213 34.8094 44.1173 34.8094 43.792C34.8094 43.472 34.8681 43.176 34.9854 42.904C35.1028 42.6267 35.2628 42.3867 35.4654 42.184C35.6734 41.976 35.9134 41.8133 36.1854 41.696C36.4628 41.5787 36.7588 41.52 37.0734 41.52C37.3881 41.52 37.6841 41.5813 37.9614 41.704C38.2441 41.8213 38.4894 41.9813 38.6974 42.184C38.9108 42.3867 39.0788 42.624 39.2014 42.896C39.3241 43.168 39.3854 43.456 39.3854 43.76C39.3854 43.8027 39.3828 43.8453 39.3774 43.888C39.3721 43.9253 39.3641 43.9653 39.3534 44.008H35.4014C35.4121 44.2213 35.4654 44.424 35.5614 44.616C35.6574 44.8027 35.7801 44.968 35.9294 45.112C36.0841 45.2507 36.2628 45.36 36.4654 45.44C36.6681 45.52 36.8814 45.56 37.1054 45.56C37.2708 45.56 37.4308 45.536 37.5854 45.488C37.7454 45.44 37.8921 45.3733 38.0254 45.288C38.1588 45.1973 38.2761 45.0907 38.3774 44.968C38.4841 44.8453 38.5694 44.7093 38.6334 44.56H39.2494ZM38.7694 43.472C38.6681 43.0347 38.4654 42.6907 38.1614 42.44C37.8628 42.1893 37.5001 42.064 37.0734 42.064C36.8654 42.064 36.6681 42.0987 36.4814 42.168C36.3001 42.232 36.1374 42.328 35.9934 42.456C35.8494 42.5787 35.7268 42.728 35.6254 42.904C35.5294 43.0747 35.4601 43.264 35.4174 43.472H38.7694ZM40.1006 41.624H40.6926V43.504H43.3166V41.624H43.9086V46H43.3166V44.04H40.6926V46H40.1006V41.624ZM45.5771 42.16H44.4251V41.624H47.3051V42.16H46.1691V46H45.5771V42.16ZM52.1834 44.712C51.9274 45.1867 51.626 45.5387 51.2794 45.768C50.9327 45.992 50.5194 46.104 50.0394 46.104C49.7034 46.104 49.3887 46.0453 49.0954 45.928C48.8074 45.8107 48.5567 45.648 48.3434 45.44C48.13 45.232 47.962 44.9893 47.8394 44.712C47.7167 44.4293 47.6554 44.1253 47.6554 43.8C47.6554 43.48 47.714 43.1813 47.8314 42.904C47.954 42.6267 48.122 42.3867 48.3354 42.184C48.5487 41.976 48.7967 41.8133 49.0794 41.696C49.3674 41.5787 49.674 41.52 49.9994 41.52C50.25 41.52 50.4874 41.5547 50.7114 41.624C50.9354 41.688 51.1407 41.7813 51.3274 41.904C51.514 42.0267 51.6794 42.1787 51.8234 42.36C51.9727 42.536 52.09 42.7333 52.1754 42.952H51.5114C51.3407 42.664 51.1247 42.4453 50.8634 42.296C50.6074 42.1413 50.3167 42.064 49.9914 42.064C49.746 42.064 49.5167 42.1093 49.3034 42.2C49.0954 42.2907 48.914 42.416 48.7594 42.576C48.6047 42.7307 48.482 42.9147 48.3914 43.128C48.3007 43.3413 48.2554 43.5707 48.2554 43.816C48.2554 44.0613 48.3007 44.2907 48.3914 44.504C48.482 44.712 48.6074 44.896 48.7674 45.056C48.9274 45.2107 49.114 45.3333 49.3274 45.424C49.5407 45.5147 49.77 45.56 50.0154 45.56C50.33 45.56 50.5994 45.496 50.8234 45.368C51.0527 45.2347 51.282 45.016 51.5114 44.712H52.1834ZM53.6671 42.16H52.5151V41.624H55.3951V42.16H54.2591V46H53.6671V42.16ZM55.9134 41.624H57.6654C58.14 41.624 58.5107 41.7253 58.7774 41.928C59.044 42.1307 59.1774 42.4133 59.1774 42.776C59.1774 42.952 59.1214 43.1227 59.0094 43.288C58.8974 43.4533 58.756 43.5733 58.5854 43.648C59.1294 43.8507 59.4014 44.2 59.4014 44.696C59.4014 44.888 59.3614 45.064 59.2814 45.224C59.2014 45.3787 59.0894 45.5147 58.9454 45.632C58.8014 45.7493 58.6307 45.84 58.4334 45.904C58.236 45.968 58.02 46 57.7854 46H55.9134V41.624ZM57.5694 43.432C57.9054 43.432 58.1614 43.376 58.3374 43.264C58.5187 43.1467 58.6094 42.984 58.6094 42.776C58.6094 42.3653 58.2627 42.16 57.5694 42.16H56.5054V43.432H57.5694ZM57.6334 45.464C58.012 45.464 58.3 45.4 58.4974 45.272C58.7 45.1387 58.8014 44.9467 58.8014 44.696C58.8014 44.2107 58.412 43.968 57.6334 43.968H56.5054V45.464H57.6334ZM59.9466 43.816C59.9466 43.4853 60.0026 43.1787 60.1146 42.896C60.232 42.6133 60.3946 42.3707 60.6026 42.168C60.8106 41.9653 61.056 41.808 61.3386 41.696C61.6213 41.5787 61.9306 41.52 62.2666 41.52C62.5866 41.52 62.8826 41.5787 63.1546 41.696C63.432 41.8133 63.6693 41.976 63.8666 42.184C64.0693 42.3867 64.2266 42.6293 64.3386 42.912C64.456 43.1893 64.5146 43.4933 64.5146 43.824C64.5146 44.1493 64.4586 44.4533 64.3466 44.736C64.2346 45.0133 64.08 45.2533 63.8826 45.456C63.6853 45.6587 63.448 45.8187 63.1706 45.936C62.8986 46.048 62.6026 46.104 62.2826 46.104C61.9466 46.104 61.6346 46.048 61.3466 45.936C61.064 45.8187 60.8186 45.6587 60.6106 45.456C60.4026 45.248 60.24 45.0053 60.1226 44.728C60.0053 44.4453 59.9466 44.1413 59.9466 43.816ZM62.2666 45.56C62.5066 45.56 62.728 45.5173 62.9306 45.432C63.1333 45.3467 63.3066 45.2293 63.4506 45.08C63.5946 44.9253 63.7066 44.7413 63.7866 44.528C63.872 44.3147 63.9146 44.0827 63.9146 43.832C63.9146 43.576 63.872 43.3387 63.7866 43.12C63.7066 42.9013 63.5893 42.7147 63.4346 42.56C63.2853 42.4053 63.1066 42.2853 62.8986 42.2C62.696 42.1093 62.4693 42.064 62.2186 42.064C61.9786 42.064 61.7546 42.1093 61.5466 42.2C61.344 42.2853 61.168 42.408 61.0186 42.568C60.8746 42.7227 60.76 42.9093 60.6746 43.128C60.5893 43.3413 60.5466 43.5733 60.5466 43.824C60.5466 44.0747 60.5893 44.3067 60.6746 44.52C60.76 44.728 60.88 44.9093 61.0346 45.064C61.1893 45.2187 61.3706 45.3413 61.5786 45.432C61.792 45.5173 62.0213 45.56 62.2666 45.56ZM67.4156 41.624H71.1836V46H70.5916V42.16H68.0076V46H67.4156V41.624ZM71.941 43.816C71.941 43.4853 71.997 43.1787 72.109 42.896C72.2263 42.6133 72.389 42.3707 72.597 42.168C72.805 41.9653 73.0503 41.808 73.333 41.696C73.6157 41.5787 73.925 41.52 74.261 41.52C74.581 41.52 74.877 41.5787 75.149 41.696C75.4263 41.8133 75.6637 41.976 75.861 42.184C76.0637 42.3867 76.221 42.6293 76.333 42.912C76.4503 43.1893 76.509 43.4933 76.509 43.824C76.509 44.1493 76.453 44.4533 76.341 44.736C76.229 45.0133 76.0743 45.2533 75.877 45.456C75.6797 45.6587 75.4423 45.8187 75.165 45.936C74.893 46.048 74.597 46.104 74.277 46.104C73.941 46.104 73.629 46.048 73.341 45.936C73.0583 45.8187 72.813 45.6587 72.605 45.456C72.397 45.248 72.2343 45.0053 72.117 44.728C71.9997 44.4453 71.941 44.1413 71.941 43.816ZM74.261 45.56C74.501 45.56 74.7223 45.5173 74.925 45.432C75.1277 45.3467 75.301 45.2293 75.445 45.08C75.589 44.9253 75.701 44.7413 75.781 44.528C75.8663 44.3147 75.909 44.0827 75.909 43.832C75.909 43.576 75.8663 43.3387 75.781 43.12C75.701 42.9013 75.5837 42.7147 75.429 42.56C75.2797 42.4053 75.101 42.2853 74.893 42.2C74.6903 42.1093 74.4637 42.064 74.213 42.064C73.973 42.064 73.749 42.1093 73.541 42.2C73.3383 42.2853 73.1623 42.408 73.013 42.568C72.869 42.7227 72.7543 42.9093 72.669 43.128C72.5837 43.3413 72.541 43.5733 72.541 43.824C72.541 44.0747 72.5837 44.3067 72.669 44.52C72.7543 44.728 72.8743 44.9093 73.029 45.064C73.1837 45.2187 73.365 45.3413 73.573 45.432C73.7863 45.5173 74.0157 45.56 74.261 45.56ZM78.32 41.624H78.984L80.864 46H80.24L78.656 42.296L77.064 46H76.44L78.32 41.624ZM81.3318 41.624H81.9238V43.504H84.5478V41.624H85.1398V46H84.5478V44.04H81.9238V46H81.3318V41.624ZM85.8963 43.816C85.8963 43.4853 85.9523 43.1787 86.0643 42.896C86.1816 42.6133 86.3443 42.3707 86.5523 42.168C86.7603 41.9653 87.0056 41.808 87.2883 41.696C87.571 41.5787 87.8803 41.52 88.2163 41.52C88.5363 41.52 88.8323 41.5787 89.1043 41.696C89.3816 41.8133 89.619 41.976 89.8163 42.184C90.019 42.3867 90.1763 42.6293 90.2883 42.912C90.4056 43.1893 90.4643 43.4933 90.4643 43.824C90.4643 44.1493 90.4083 44.4533 90.2963 44.736C90.1843 45.0133 90.0296 45.2533 89.8323 45.456C89.635 45.6587 89.3976 45.8187 89.1203 45.936C88.8483 46.048 88.5523 46.104 88.2323 46.104C87.8963 46.104 87.5843 46.048 87.2963 45.936C87.0136 45.8187 86.7683 45.6587 86.5603 45.456C86.3523 45.248 86.1896 45.0053 86.0723 44.728C85.955 44.4453 85.8963 44.1413 85.8963 43.816ZM88.2163 45.56C88.4563 45.56 88.6776 45.5173 88.8803 45.432C89.083 45.3467 89.2563 45.2293 89.4003 45.08C89.5443 44.9253 89.6563 44.7413 89.7363 44.528C89.8216 44.3147 89.8643 44.0827 89.8643 43.832C89.8643 43.576 89.8216 43.3387 89.7363 43.12C89.6563 42.9013 89.539 42.7147 89.3843 42.56C89.235 42.4053 89.0563 42.2853 88.8483 42.2C88.6456 42.1093 88.419 42.064 88.1683 42.064C87.9283 42.064 87.7043 42.1093 87.4963 42.2C87.2936 42.2853 87.1176 42.408 86.9683 42.568C86.8243 42.7227 86.7096 42.9093 86.6243 43.128C86.539 43.3413 86.4963 43.5733 86.4963 43.824C86.4963 44.0747 86.539 44.3067 86.6243 44.52C86.7096 44.728 86.8296 44.9093 86.9843 45.064C87.139 45.2187 87.3203 45.3413 87.5283 45.432C87.7416 45.5173 87.971 45.56 88.2163 45.56ZM91.2265 41.624H93.4665V42.16H91.8185V46H91.2265V41.624ZM93.8223 43.816C93.8223 43.4853 93.8783 43.1787 93.9903 42.896C94.1076 42.6133 94.2703 42.3707 94.4783 42.168C94.6863 41.9653 94.9316 41.808 95.2143 41.696C95.4969 41.5787 95.8063 41.52 96.1423 41.52C96.4623 41.52 96.7583 41.5787 97.0303 41.696C97.3076 41.8133 97.5449 41.976 97.7423 42.184C97.9449 42.3867 98.1023 42.6293 98.2143 42.912C98.3316 43.1893 98.3903 43.4933 98.3903 43.824C98.3903 44.1493 98.3343 44.4533 98.2223 44.736C98.1103 45.0133 97.9556 45.2533 97.7583 45.456C97.5609 45.6587 97.3236 45.8187 97.0463 45.936C96.7743 46.048 96.4783 46.104 96.1583 46.104C95.8223 46.104 95.5103 46.048 95.2223 45.936C94.9396 45.8187 94.6943 45.6587 94.4863 45.456C94.2783 45.248 94.1156 45.0053 93.9983 44.728C93.8809 44.4453 93.8223 44.1413 93.8223 43.816ZM96.1423 45.56C96.3823 45.56 96.6036 45.5173 96.8063 45.432C97.0089 45.3467 97.1823 45.2293 97.3263 45.08C97.4703 44.9253 97.5823 44.7413 97.6623 44.528C97.7476 44.3147 97.7903 44.0827 97.7903 43.832C97.7903 43.576 97.7476 43.3387 97.6623 43.12C97.5823 42.9013 97.4649 42.7147 97.3103 42.56C97.1609 42.4053 96.9823 42.2853 96.7743 42.2C96.5716 42.1093 96.3449 42.064 96.0943 42.064C95.8543 42.064 95.6303 42.1093 95.4223 42.2C95.2196 42.2853 95.0436 42.408 94.8943 42.568C94.7503 42.7227 94.6356 42.9093 94.5503 43.128C94.4649 43.3413 94.4223 43.5733 94.4223 43.824C94.4223 44.0747 94.4649 44.3067 94.5503 44.52C94.6356 44.728 94.7556 44.9093 94.9103 45.064C95.0649 45.2187 95.2463 45.3413 95.4543 45.432C95.6676 45.5173 95.8969 45.56 96.1423 45.56ZM101.291 41.624H101.883V45.464H104.387V41.624H104.979V45.464H105.691V47.008H105.283L105.067 46H101.291V41.624ZM106.188 41.624H106.78V45.16L109.444 41.624H110.036V46H109.444V42.464L106.78 46H106.188V41.624ZM110.967 41.624H111.559V43.576L113.559 41.624H114.327L112.143 43.744L114.327 46H113.551L111.559 43.936V46H110.967V41.624ZM116.209 41.624H116.873L118.753 46H118.129L116.545 42.296L114.953 46H114.329L116.209 41.624ZM118.686 43.824C118.686 43.4933 118.745 43.1893 118.862 42.912C118.979 42.6293 119.139 42.3867 119.342 42.184C119.55 41.976 119.795 41.8133 120.078 41.696C120.361 41.5787 120.665 41.52 120.99 41.52C121.374 41.52 121.702 41.5893 121.974 41.728C122.246 41.8667 122.494 42.0907 122.718 42.4V41.624H123.31V46H122.718V45.232C122.601 45.3867 122.481 45.52 122.358 45.632C122.241 45.744 122.115 45.8347 121.982 45.904C121.849 45.9733 121.705 46.024 121.55 46.056C121.395 46.088 121.225 46.104 121.038 46.104C120.702 46.104 120.39 46.048 120.102 45.936C119.814 45.8187 119.563 45.6587 119.35 45.456C119.142 45.2533 118.979 45.0133 118.862 44.736C118.745 44.4533 118.686 44.1493 118.686 43.824ZM119.286 43.8C119.286 44.0453 119.331 44.2747 119.422 44.488C119.513 44.7013 119.635 44.888 119.79 45.048C119.95 45.208 120.137 45.3333 120.35 45.424C120.563 45.5147 120.79 45.56 121.03 45.56C121.27 45.56 121.491 45.5147 121.694 45.424C121.902 45.3333 122.081 45.2107 122.23 45.056C122.385 44.896 122.505 44.7093 122.59 44.496C122.675 44.2773 122.718 44.0453 122.718 43.8C122.718 43.5493 122.673 43.32 122.582 43.112C122.497 42.8987 122.377 42.7147 122.222 42.56C122.067 42.4053 121.883 42.2853 121.67 42.2C121.462 42.1093 121.233 42.064 120.982 42.064C120.747 42.064 120.526 42.1093 120.318 42.2C120.115 42.2907 119.937 42.416 119.782 42.576C119.627 42.7307 119.505 42.9147 119.414 43.128C119.329 43.336 119.286 43.56 119.286 43.8Z" fill="white"/>
</svg>
